<svg width="251" height="62" viewBox="0 0 251 62" fill="none" xmlns="http://www.w3.org/2000/svg">
<path fill-rule="evenodd" clip-rule="evenodd" d="M21 16C25.4183 16 29 12.4183 29 8C29 3.58172 25.4183 0 21 0C16.5817 0 13 3.58172 13 8C13 12.4183 16.5817 16 21 16ZM29 54C29 58.4183 25.4183 62 21 62C16.5817 62 13 58.4183 13 54C13 49.5817 16.5817 46 21 46C25.4183 46 29 49.5817 29 54ZM56 54C56 58.4183 52.4183 62 48 62C43.5817 62 40 58.4183 40 54C40 49.5817 43.5817 46 48 46C52.4183 46 56 49.5817 56 54ZM68 31C68 35.4183 64.4183 39 60 39C55.5817 39 52 35.4183 52 31C52 26.5817 55.5817 23 60 23C64.4183 23 68 26.5817 68 31ZM47 17C51.4183 17 55 13.4183 55 9C55 4.58172 51.4183 1 47 1C42.5817 1 39 4.58172 39 9C39 13.4183 42.5817 17 47 17ZM16 31C16 35.4183 12.4183 39 8 39C3.58172 39 0 35.4183 0 31C0 26.5817 3.58172 23 8 23C12.4183 23 16 26.5817 16 31ZM34 39C38.4183 39 42 35.4183 42 31C42 26.5817 38.4183 23 34 23C29.5817 23 26 26.5817 26 31C26 35.4183 29.5817 39 34 39Z" fill="#258998"/>
<path d="M93.488 27.896H99.296C99.3253 26.4293 99.0907 25.2267 98.592 24.288C98.0933 23.3493 97.404 22.616 96.524 22.088C95.6733 21.5307 94.676 21.1493 93.532 20.944C92.388 20.7387 91.2 20.636 89.968 20.636C88.8827 20.636 87.7387 20.768 86.536 21.032C85.3627 21.2667 84.2773 21.6773 83.28 22.264C82.2827 22.8213 81.4613 23.5547 80.816 24.464C80.2 25.3733 79.892 26.5027 79.892 27.852C79.892 28.7613 79.9947 29.524 80.2 30.14C80.4347 30.756 80.7573 31.284 81.168 31.724C81.608 32.164 82.1213 32.5307 82.708 32.824C83.324 33.1173 84.028 33.396 84.82 33.66L89.616 35.2C90.2907 35.4347 90.8333 35.7133 91.244 36.036C91.6547 36.3587 91.86 36.916 91.86 37.708C91.86 38.236 91.7427 38.676 91.508 39.028C91.2733 39.3507 90.9653 39.6293 90.584 39.864C90.2027 40.0693 89.7773 40.216 89.308 40.304C88.8387 40.392 88.3693 40.436 87.9 40.436C87.372 40.436 86.8293 40.3773 86.272 40.26C85.744 40.1133 85.26 39.9227 84.82 39.688C84.4093 39.424 84.072 39.1013 83.808 38.72C83.544 38.3387 83.412 37.884 83.412 37.356V36.608H77.648V37.532C77.648 38.8813 77.9413 40.0107 78.528 40.92C79.1147 41.8 79.8627 42.5187 80.772 43.076C81.7107 43.604 82.752 43.9853 83.896 44.22C85.04 44.4547 86.1693 44.572 87.284 44.572C88.604 44.572 89.9093 44.44 91.2 44.176C92.4907 43.912 93.6493 43.472 94.676 42.856C95.7027 42.24 96.524 41.448 97.14 40.48C97.7853 39.4827 98.108 38.28 98.108 36.872C98.108 35.9333 97.9467 35.112 97.624 34.408C97.3307 33.704 96.9053 33.1027 96.348 32.604C95.82 32.076 95.1893 31.636 94.456 31.284C93.752 30.932 92.9747 30.624 92.124 30.36L89 29.348C87.944 29.0253 87.196 28.688 86.756 28.336C86.3453 27.984 86.14 27.5587 86.14 27.06C86.14 26.2387 86.492 25.6667 87.196 25.344C87.9293 24.992 88.8533 24.816 89.968 24.816C91.2 24.816 92.08 25.0947 92.608 25.652C93.1653 26.18 93.4587 26.928 93.488 27.896ZM110.232 47.168L124.708 21.252H118.108L110.232 37.532H110.144L108.164 21.252H101.74L105.788 43.78C105.583 44.044 105.378 44.352 105.172 44.704C104.996 45.056 104.762 45.3787 104.468 45.672C104.204 45.9947 103.852 46.2587 103.412 46.464C102.972 46.6987 102.386 46.816 101.652 46.816C101.242 46.816 100.831 46.772 100.42 46.684C99.9804 46.596 99.5551 46.552 99.1444 46.552L98.0884 51.744C98.6457 51.7733 99.2031 51.8173 99.7604 51.876C100.318 51.9347 100.86 51.964 101.388 51.964C102.562 51.964 103.574 51.8907 104.424 51.744C105.304 51.6267 106.082 51.392 106.756 51.04C107.431 50.688 108.047 50.1893 108.604 49.544C109.162 48.928 109.704 48.136 110.232 47.168ZM127.857 21.252L123.149 44H129.353L131.905 31.9C132.081 31.108 132.33 30.3307 132.653 29.568C133.005 28.8053 133.43 28.1307 133.929 27.544C134.457 26.9573 135.073 26.488 135.777 26.136C136.51 25.7547 137.346 25.564 138.285 25.564C139.018 25.564 139.693 25.784 140.309 26.224C140.954 26.664 141.277 27.2213 141.277 27.896C141.277 28.2187 141.218 28.6733 141.101 29.26C141.013 29.8467 140.939 30.316 140.881 30.668L138.109 44H144.357L147.173 30.668C147.202 30.4627 147.246 30.1987 147.305 29.876C147.393 29.524 147.466 29.1573 147.525 28.776C147.613 28.3947 147.686 28.028 147.745 27.676C147.803 27.2947 147.833 26.9867 147.833 26.752C147.833 22.6747 145.618 20.636 141.189 20.636C137.903 20.636 135.249 21.8973 133.225 24.42H133.137L133.841 21.252H127.857ZM153.171 28.16H159.023C159.229 27.016 159.771 26.18 160.651 25.652C161.531 25.0947 162.529 24.816 163.643 24.816C164.054 24.816 164.479 24.86 164.919 24.948C165.389 25.0067 165.814 25.1387 166.195 25.344C166.606 25.5493 166.943 25.828 167.207 26.18C167.471 26.532 167.603 27.0013 167.603 27.588C167.603 28.3213 167.427 28.8787 167.075 29.26C166.723 29.612 166.181 29.8907 165.447 30.096C164.743 30.272 163.849 30.404 162.763 30.492C161.678 30.58 160.402 30.712 158.935 30.888C156.178 31.2107 154.037 32.032 152.511 33.352C151.015 34.672 150.267 36.432 150.267 38.632C150.267 39.424 150.414 40.1867 150.707 40.92C151.001 41.624 151.455 42.2547 152.071 42.812C152.687 43.34 153.45 43.7653 154.359 44.088C155.298 44.4107 156.383 44.572 157.615 44.572C158.935 44.572 160.211 44.352 161.443 43.912C162.675 43.4427 163.717 42.724 164.567 41.756V44H170.815C170.669 43.5013 170.595 43.0613 170.595 42.68C170.595 42.24 170.61 41.7267 170.639 41.14C170.698 40.524 170.786 40.0107 170.903 39.6L172.927 30.448C173.25 28.9813 173.411 27.7053 173.411 26.62C173.441 25.3293 173.147 24.3027 172.531 23.54C171.945 22.748 171.182 22.1467 170.243 21.736C169.305 21.296 168.278 21.0027 167.163 20.856C166.049 20.7093 164.978 20.636 163.951 20.636C162.661 20.636 161.414 20.768 160.211 21.032C159.009 21.2667 157.923 21.6773 156.955 22.264C155.987 22.8507 155.166 23.628 154.491 24.596C153.817 25.5347 153.377 26.7227 153.171 28.16ZM166.371 33.088L165.755 35.288C165.579 35.904 165.359 36.52 165.095 37.136C164.831 37.752 164.465 38.3093 163.995 38.808C163.555 39.2773 162.998 39.6733 162.323 39.996C161.678 40.2893 160.871 40.436 159.903 40.436C158.994 40.436 158.187 40.2307 157.483 39.82C156.809 39.38 156.471 38.7347 156.471 37.884C156.471 37.18 156.603 36.608 156.867 36.168C157.131 35.6987 157.469 35.332 157.879 35.068C158.319 34.804 158.818 34.6133 159.375 34.496C159.933 34.3493 160.505 34.2467 161.091 34.188C162.001 34.1293 162.91 34.056 163.819 33.968C164.729 33.8507 165.579 33.5573 166.371 33.088ZM179.757 21.252L173.245 51.964H179.449L181.825 40.964H181.957C182.192 41.58 182.529 42.1227 182.969 42.592C183.438 43.032 183.952 43.3987 184.509 43.692C185.096 43.9853 185.712 44.2053 186.357 44.352C187.032 44.4987 187.692 44.572 188.337 44.572C190.449 44.572 192.268 44.1467 193.793 43.296C195.348 42.4453 196.638 41.316 197.665 39.908C198.692 38.5 199.454 36.9013 199.953 35.112C200.452 33.3227 200.701 31.4893 200.701 29.612C200.701 26.8547 199.953 24.6693 198.457 23.056C196.961 21.4427 194.834 20.636 192.077 20.636C190.669 20.636 189.349 20.9147 188.117 21.472C186.914 22.0293 185.961 22.924 185.257 24.156L185.169 24.068L185.785 21.252H179.757ZM190.009 25.344C190.742 25.344 191.388 25.4907 191.945 25.784C192.502 26.048 192.957 26.4147 193.309 26.884C193.69 27.324 193.969 27.852 194.145 28.468C194.35 29.084 194.453 29.7293 194.453 30.404C194.453 31.4013 194.321 32.4573 194.057 33.572C193.793 34.6867 193.382 35.7133 192.825 36.652C192.268 37.5907 191.564 38.368 190.713 38.984C189.862 39.6 188.836 39.908 187.633 39.908C186.108 39.908 184.978 39.468 184.245 38.588C183.512 37.6787 183.145 36.476 183.145 34.98C183.145 34.012 183.277 32.9707 183.541 31.856C183.834 30.712 184.26 29.656 184.817 28.688C185.404 27.72 186.122 26.928 186.973 26.312C187.824 25.6667 188.836 25.344 190.009 25.344ZM218.183 27.896H223.991C224.021 26.4293 223.786 25.2267 223.287 24.288C222.789 23.3493 222.099 22.616 221.219 22.088C220.369 21.5307 219.371 21.1493 218.227 20.944C217.083 20.7387 215.895 20.636 214.663 20.636C213.578 20.636 212.434 20.768 211.231 21.032C210.058 21.2667 208.973 21.6773 207.975 22.264C206.978 22.8213 206.157 23.5547 205.511 24.464C204.895 25.3733 204.587 26.5027 204.587 27.852C204.587 28.7613 204.69 29.524 204.895 30.14C205.13 30.756 205.453 31.284 205.863 31.724C206.303 32.164 206.817 32.5307 207.403 32.824C208.019 33.1173 208.723 33.396 209.515 33.66L214.311 35.2C214.986 35.4347 215.529 35.7133 215.939 36.036C216.35 36.3587 216.555 36.916 216.555 37.708C216.555 38.236 216.438 38.676 216.203 39.028C215.969 39.3507 215.661 39.6293 215.279 39.864C214.898 40.0693 214.473 40.216 214.003 40.304C213.534 40.392 213.065 40.436 212.595 40.436C212.067 40.436 211.525 40.3773 210.967 40.26C210.439 40.1133 209.955 39.9227 209.515 39.688C209.105 39.424 208.767 39.1013 208.503 38.72C208.239 38.3387 208.107 37.884 208.107 37.356V36.608H202.343V37.532C202.343 38.8813 202.637 40.0107 203.223 40.92C203.81 41.8 204.558 42.5187 205.467 43.076C206.406 43.604 207.447 43.9853 208.591 44.22C209.735 44.4547 210.865 44.572 211.979 44.572C213.299 44.572 214.605 44.44 215.895 44.176C217.186 43.912 218.345 43.472 219.371 42.856C220.398 42.24 221.219 41.448 221.835 40.48C222.481 39.4827 222.803 38.28 222.803 36.872C222.803 35.9333 222.642 35.112 222.319 34.408C222.026 33.704 221.601 33.1027 221.043 32.604C220.515 32.076 219.885 31.636 219.151 31.284C218.447 30.932 217.67 30.624 216.819 30.36L213.695 29.348C212.639 29.0253 211.891 28.688 211.451 28.336C211.041 27.984 210.835 27.5587 210.835 27.06C210.835 26.2387 211.187 25.6667 211.891 25.344C212.625 24.992 213.549 24.816 214.663 24.816C215.895 24.816 216.775 25.0947 217.303 25.652C217.861 26.18 218.154 26.928 218.183 27.896ZM243.068 30.184H232.64C232.874 29.5387 233.153 28.9227 233.476 28.336C233.828 27.7493 234.253 27.236 234.752 26.796C235.25 26.356 235.837 26.004 236.512 25.74C237.186 25.476 237.964 25.344 238.844 25.344C239.753 25.344 240.486 25.4907 241.044 25.784C241.601 26.048 242.026 26.4147 242.32 26.884C242.613 27.3533 242.804 27.8813 242.892 28.468C243.009 29.0253 243.068 29.5973 243.068 30.184ZM231.98 34.144H248.744C248.978 32.8827 249.096 31.6947 249.096 30.58C249.096 28.9373 248.832 27.5 248.304 26.268C247.805 25.0067 247.086 23.9653 246.148 23.144C245.238 22.2933 244.124 21.6627 242.804 21.252C241.513 20.8413 240.076 20.636 238.492 20.636C236.556 20.636 234.81 21.032 233.256 21.824C231.701 22.5867 230.381 23.628 229.296 24.948C228.24 26.2387 227.418 27.7347 226.832 29.436C226.245 31.108 225.952 32.8533 225.952 34.672C225.952 36.3147 226.186 37.752 226.656 38.984C227.154 40.216 227.844 41.2573 228.724 42.108C229.604 42.9293 230.66 43.5453 231.892 43.956C233.153 44.3667 234.546 44.572 236.072 44.572C237.714 44.572 239.152 44.4107 240.384 44.088C241.645 43.7653 242.745 43.2813 243.684 42.636C244.622 41.9613 245.429 41.14 246.104 40.172C246.778 39.204 247.365 38.0747 247.864 36.784H241.616C241.381 37.136 241.117 37.5027 240.824 37.884C240.56 38.2653 240.237 38.6027 239.856 38.896C239.504 39.1893 239.078 39.4387 238.58 39.644C238.11 39.82 237.568 39.908 236.952 39.908C235.25 39.908 233.989 39.4973 233.168 38.676C232.346 37.8547 231.936 36.784 231.936 35.464V34.892C231.936 34.7747 231.936 34.6573 231.936 34.54C231.936 34.4227 231.95 34.2907 231.98 34.144Z" fill="black"/>
</svg>
