<svg width="261" height="62" viewBox="0 0 261 62" fill="none" xmlns="http://www.w3.org/2000/svg">
<path fill-rule="evenodd" clip-rule="evenodd" d="M21 16C25.4183 16 29 12.4183 29 8C29 3.58172 25.4183 0 21 0C16.5817 0 13 3.58172 13 8C13 12.4183 16.5817 16 21 16ZM29 54C29 58.4183 25.4183 62 21 62C16.5817 62 13 58.4183 13 54C13 49.5817 16.5817 46 21 46C25.4183 46 29 49.5817 29 54ZM56 54C56 58.4183 52.4183 62 48 62C43.5817 62 40 58.4183 40 54C40 49.5817 43.5817 46 48 46C52.4183 46 56 49.5817 56 54ZM68 31C68 35.4183 64.4183 39 60 39C55.5817 39 52 35.4183 52 31C52 26.5817 55.5817 23 60 23C64.4183 23 68 26.5817 68 31ZM47 17C51.4183 17 55 13.4183 55 9C55 4.58172 51.4183 1 47 1C42.5817 1 39 4.58172 39 9C39 13.4183 42.5817 17 47 17ZM16 31C16 35.4183 12.4183 39 8 39C3.58172 39 0 35.4183 0 31C0 26.5817 3.58172 23 8 23C12.4183 23 16 26.5817 16 31ZM34 39C38.4183 39 42 35.4183 42 31C42 26.5817 38.4183 23 34 23C29.5817 23 26 26.5817 26 31C26 35.4183 29.5817 39 34 39Z" fill="#258998"/>
<path d="M103.488 27.896H109.296C109.325 26.4293 109.091 25.2267 108.592 24.288C108.093 23.3493 107.404 22.616 106.524 22.088C105.673 21.5307 104.676 21.1493 103.532 20.944C102.388 20.7387 101.2 20.636 99.968 20.636C98.8827 20.636 97.7387 20.768 96.536 21.032C95.3627 21.2667 94.2773 21.6773 93.28 22.264C92.2827 22.8213 91.4613 23.5547 90.816 24.464C90.2 25.3733 89.892 26.5027 89.892 27.852C89.892 28.7613 89.9947 29.524 90.2 30.14C90.4347 30.756 90.7573 31.284 91.168 31.724C91.608 32.164 92.1213 32.5307 92.708 32.824C93.324 33.1173 94.028 33.396 94.82 33.66L99.616 35.2C100.291 35.4347 100.833 35.7133 101.244 36.036C101.655 36.3587 101.86 36.916 101.86 37.708C101.86 38.236 101.743 38.676 101.508 39.028C101.273 39.3507 100.965 39.6293 100.584 39.864C100.203 40.0693 99.7773 40.216 99.308 40.304C98.8387 40.392 98.3693 40.436 97.9 40.436C97.372 40.436 96.8293 40.3773 96.272 40.26C95.744 40.1133 95.26 39.9227 94.82 39.688C94.4093 39.424 94.072 39.1013 93.808 38.72C93.544 38.3387 93.412 37.884 93.412 37.356V36.608H87.648V37.532C87.648 38.8813 87.9413 40.0107 88.528 40.92C89.1147 41.8 89.8627 42.5187 90.772 43.076C91.7107 43.604 92.752 43.9853 93.896 44.22C95.04 44.4547 96.1693 44.572 97.284 44.572C98.604 44.572 99.9093 44.44 101.2 44.176C102.491 43.912 103.649 43.472 104.676 42.856C105.703 42.24 106.524 41.448 107.14 40.48C107.785 39.4827 108.108 38.28 108.108 36.872C108.108 35.9333 107.947 35.112 107.624 34.408C107.331 33.704 106.905 33.1027 106.348 32.604C105.82 32.076 105.189 31.636 104.456 31.284C103.752 30.932 102.975 30.624 102.124 30.36L99 29.348C97.944 29.0253 97.196 28.688 96.756 28.336C96.3453 27.984 96.14 27.5587 96.14 27.06C96.14 26.2387 96.492 25.6667 97.196 25.344C97.9293 24.992 98.8533 24.816 99.968 24.816C101.2 24.816 102.08 25.0947 102.608 25.652C103.165 26.18 103.459 26.928 103.488 27.896ZM120.232 47.168L134.708 21.252H128.108L120.232 37.532H120.144L118.164 21.252H111.74L115.788 43.78C115.583 44.044 115.378 44.352 115.172 44.704C114.996 45.056 114.762 45.3787 114.468 45.672C114.204 45.9947 113.852 46.2587 113.412 46.464C112.972 46.6987 112.386 46.816 111.652 46.816C111.242 46.816 110.831 46.772 110.42 46.684C109.98 46.596 109.555 46.552 109.144 46.552L108.088 51.744C108.646 51.7733 109.203 51.8173 109.76 51.876C110.318 51.9347 110.86 51.964 111.388 51.964C112.562 51.964 113.574 51.8907 114.424 51.744C115.304 51.6267 116.082 51.392 116.756 51.04C117.431 50.688 118.047 50.1893 118.604 49.544C119.162 48.928 119.704 48.136 120.232 47.168ZM137.857 21.252L133.149 44H139.353L141.905 31.9C142.081 31.108 142.33 30.3307 142.653 29.568C143.005 28.8053 143.43 28.1307 143.929 27.544C144.457 26.9573 145.073 26.488 145.777 26.136C146.51 25.7547 147.346 25.564 148.285 25.564C149.018 25.564 149.693 25.784 150.309 26.224C150.954 26.664 151.277 27.2213 151.277 27.896C151.277 28.2187 151.218 28.6733 151.101 29.26C151.013 29.8467 150.939 30.316 150.881 30.668L148.109 44H154.357L157.173 30.668C157.202 30.4627 157.246 30.1987 157.305 29.876C157.393 29.524 157.466 29.1573 157.525 28.776C157.613 28.3947 157.686 28.028 157.745 27.676C157.803 27.2947 157.833 26.9867 157.833 26.752C157.833 22.6747 155.618 20.636 151.189 20.636C147.903 20.636 145.249 21.8973 143.225 24.42H143.137L143.841 21.252H137.857ZM163.171 28.16H169.023C169.229 27.016 169.771 26.18 170.651 25.652C171.531 25.0947 172.529 24.816 173.643 24.816C174.054 24.816 174.479 24.86 174.919 24.948C175.389 25.0067 175.814 25.1387 176.195 25.344C176.606 25.5493 176.943 25.828 177.207 26.18C177.471 26.532 177.603 27.0013 177.603 27.588C177.603 28.3213 177.427 28.8787 177.075 29.26C176.723 29.612 176.181 29.8907 175.447 30.096C174.743 30.272 173.849 30.404 172.763 30.492C171.678 30.58 170.402 30.712 168.935 30.888C166.178 31.2107 164.037 32.032 162.511 33.352C161.015 34.672 160.267 36.432 160.267 38.632C160.267 39.424 160.414 40.1867 160.707 40.92C161.001 41.624 161.455 42.2547 162.071 42.812C162.687 43.34 163.45 43.7653 164.359 44.088C165.298 44.4107 166.383 44.572 167.615 44.572C168.935 44.572 170.211 44.352 171.443 43.912C172.675 43.4427 173.717 42.724 174.567 41.756V44H180.815C180.669 43.5013 180.595 43.0613 180.595 42.68C180.595 42.24 180.61 41.7267 180.639 41.14C180.698 40.524 180.786 40.0107 180.903 39.6L182.927 30.448C183.25 28.9813 183.411 27.7053 183.411 26.62C183.441 25.3293 183.147 24.3027 182.531 23.54C181.945 22.748 181.182 22.1467 180.243 21.736C179.305 21.296 178.278 21.0027 177.163 20.856C176.049 20.7093 174.978 20.636 173.951 20.636C172.661 20.636 171.414 20.768 170.211 21.032C169.009 21.2667 167.923 21.6773 166.955 22.264C165.987 22.8507 165.166 23.628 164.491 24.596C163.817 25.5347 163.377 26.7227 163.171 28.16ZM176.371 33.088L175.755 35.288C175.579 35.904 175.359 36.52 175.095 37.136C174.831 37.752 174.465 38.3093 173.995 38.808C173.555 39.2773 172.998 39.6733 172.323 39.996C171.678 40.2893 170.871 40.436 169.903 40.436C168.994 40.436 168.187 40.2307 167.483 39.82C166.809 39.38 166.471 38.7347 166.471 37.884C166.471 37.18 166.603 36.608 166.867 36.168C167.131 35.6987 167.469 35.332 167.879 35.068C168.319 34.804 168.818 34.6133 169.375 34.496C169.933 34.3493 170.505 34.2467 171.091 34.188C172.001 34.1293 172.91 34.056 173.819 33.968C174.729 33.8507 175.579 33.5573 176.371 33.088ZM189.757 21.252L183.245 51.964H189.449L191.825 40.964H191.957C192.192 41.58 192.529 42.1227 192.969 42.592C193.438 43.032 193.952 43.3987 194.509 43.692C195.096 43.9853 195.712 44.2053 196.357 44.352C197.032 44.4987 197.692 44.572 198.337 44.572C200.449 44.572 202.268 44.1467 203.793 43.296C205.348 42.4453 206.638 41.316 207.665 39.908C208.692 38.5 209.454 36.9013 209.953 35.112C210.452 33.3227 210.701 31.4893 210.701 29.612C210.701 26.8547 209.953 24.6693 208.457 23.056C206.961 21.4427 204.834 20.636 202.077 20.636C200.669 20.636 199.349 20.9147 198.117 21.472C196.914 22.0293 195.961 22.924 195.257 24.156L195.169 24.068L195.785 21.252H189.757ZM200.009 25.344C200.742 25.344 201.388 25.4907 201.945 25.784C202.502 26.048 202.957 26.4147 203.309 26.884C203.69 27.324 203.969 27.852 204.145 28.468C204.35 29.084 204.453 29.7293 204.453 30.404C204.453 31.4013 204.321 32.4573 204.057 33.572C203.793 34.6867 203.382 35.7133 202.825 36.652C202.268 37.5907 201.564 38.368 200.713 38.984C199.862 39.6 198.836 39.908 197.633 39.908C196.108 39.908 194.978 39.468 194.245 38.588C193.512 37.6787 193.145 36.476 193.145 34.98C193.145 34.012 193.277 32.9707 193.541 31.856C193.834 30.712 194.26 29.656 194.817 28.688C195.404 27.72 196.122 26.928 196.973 26.312C197.824 25.6667 198.836 25.344 200.009 25.344ZM228.183 27.896H233.991C234.021 26.4293 233.786 25.2267 233.287 24.288C232.789 23.3493 232.099 22.616 231.219 22.088C230.369 21.5307 229.371 21.1493 228.227 20.944C227.083 20.7387 225.895 20.636 224.663 20.636C223.578 20.636 222.434 20.768 221.231 21.032C220.058 21.2667 218.973 21.6773 217.975 22.264C216.978 22.8213 216.157 23.5547 215.511 24.464C214.895 25.3733 214.587 26.5027 214.587 27.852C214.587 28.7613 214.69 29.524 214.895 30.14C215.13 30.756 215.453 31.284 215.863 31.724C216.303 32.164 216.817 32.5307 217.403 32.824C218.019 33.1173 218.723 33.396 219.515 33.66L224.311 35.2C224.986 35.4347 225.529 35.7133 225.939 36.036C226.35 36.3587 226.555 36.916 226.555 37.708C226.555 38.236 226.438 38.676 226.203 39.028C225.969 39.3507 225.661 39.6293 225.279 39.864C224.898 40.0693 224.473 40.216 224.003 40.304C223.534 40.392 223.065 40.436 222.595 40.436C222.067 40.436 221.525 40.3773 220.967 40.26C220.439 40.1133 219.955 39.9227 219.515 39.688C219.105 39.424 218.767 39.1013 218.503 38.72C218.239 38.3387 218.107 37.884 218.107 37.356V36.608H212.343V37.532C212.343 38.8813 212.637 40.0107 213.223 40.92C213.81 41.8 214.558 42.5187 215.467 43.076C216.406 43.604 217.447 43.9853 218.591 44.22C219.735 44.4547 220.865 44.572 221.979 44.572C223.299 44.572 224.605 44.44 225.895 44.176C227.186 43.912 228.345 43.472 229.371 42.856C230.398 42.24 231.219 41.448 231.835 40.48C232.481 39.4827 232.803 38.28 232.803 36.872C232.803 35.9333 232.642 35.112 232.319 34.408C232.026 33.704 231.601 33.1027 231.043 32.604C230.515 32.076 229.885 31.636 229.151 31.284C228.447 30.932 227.67 30.624 226.819 30.36L223.695 29.348C222.639 29.0253 221.891 28.688 221.451 28.336C221.041 27.984 220.835 27.5587 220.835 27.06C220.835 26.2387 221.187 25.6667 221.891 25.344C222.625 24.992 223.549 24.816 224.663 24.816C225.895 24.816 226.775 25.0947 227.303 25.652C227.861 26.18 228.154 26.928 228.183 27.896ZM253.068 30.184H242.64C242.874 29.5387 243.153 28.9227 243.476 28.336C243.828 27.7493 244.253 27.236 244.752 26.796C245.25 26.356 245.837 26.004 246.512 25.74C247.186 25.476 247.964 25.344 248.844 25.344C249.753 25.344 250.486 25.4907 251.044 25.784C251.601 26.048 252.026 26.4147 252.32 26.884C252.613 27.3533 252.804 27.8813 252.892 28.468C253.009 29.0253 253.068 29.5973 253.068 30.184ZM241.98 34.144H258.744C258.978 32.8827 259.096 31.6947 259.096 30.58C259.096 28.9373 258.832 27.5 258.304 26.268C257.805 25.0067 257.086 23.9653 256.148 23.144C255.238 22.2933 254.124 21.6627 252.804 21.252C251.513 20.8413 250.076 20.636 248.492 20.636C246.556 20.636 244.81 21.032 243.256 21.824C241.701 22.5867 240.381 23.628 239.296 24.948C238.24 26.2387 237.418 27.7347 236.832 29.436C236.245 31.108 235.952 32.8533 235.952 34.672C235.952 36.3147 236.186 37.752 236.656 38.984C237.154 40.216 237.844 41.2573 238.724 42.108C239.604 42.9293 240.66 43.5453 241.892 43.956C243.153 44.3667 244.546 44.572 246.072 44.572C247.714 44.572 249.152 44.4107 250.384 44.088C251.645 43.7653 252.745 43.2813 253.684 42.636C254.622 41.9613 255.429 41.14 256.104 40.172C256.778 39.204 257.365 38.0747 257.864 36.784H251.616C251.381 37.136 251.117 37.5027 250.824 37.884C250.56 38.2653 250.237 38.6027 249.856 38.896C249.504 39.1893 249.078 39.4387 248.58 39.644C248.11 39.82 247.568 39.908 246.952 39.908C245.25 39.908 243.989 39.4973 243.168 38.676C242.346 37.8547 241.936 36.784 241.936 35.464V34.892C241.936 34.7747 241.936 34.6573 241.936 34.54C241.936 34.4227 241.95 34.2907 241.98 34.144Z" fill="black"/>
</svg>
